# xmcd
#
# Track frame offsets:
#	150
#	18029
#	34476
#	52389
#	72110
#	89623
#	107321
#	125965
#	142762
#	156339
#	173279
#	191561
#	207918
#	225923
#	244300
#	260302
#	277428
#	296034
#	312867
#	329472
#	345822
#	359171
#
# Disc length: 4986 seconds
#
# Revision: 1
# Processed by: cddbd v1.5.2PL0 Copyright (c) Steve Scherf et al.
# Submitted via: audiograbber 1.83.01
#
DISCID=4f137816
DTITLE=Club Sounds 90s Vol. 3 - Club Sounds 90s Vol. 3 - CD 2
DYEAR=2018
DGENRE=Club
TTITLE0=Scooter - Move Your Ass
TTITLE1=Ace of Base - Beautiful Life
TTITLE2=Dune - Million Miles from Home
TTITLE3=2 Brothers on the 4th Floor - Dreams (Will Come Alive)
TTITLE4=Snap - The First the Last Eternity (Till the End)
TTITLE5=Culture Beat - Inside Out
TTITLE6=Zhi-Vago - Celebrate (The Love)
TTITLE7=2 Unlimited - Get Ready (Rap Version Edit)
TTITLE8=Outhere Brothers - Boom Boom Boom (Don't Break My Balls Mix)
TTITLE9=Corona - Baby Baby
TTITLE10=Dr. Alban - Let The Beat Go On
TTITLE11=U96 - Heaven
TTITLE12=Cappella - Move It Up
TTITLE13=Intermission - Piece Of My Heart
TTITLE14=Masterboy - Show Me Colours
TTITLE15=Red 5 - Da Beat Goes
TTITLE16=General Base - Rhythm and Drums (Pt. 2)
TTITLE17=Mauro Picotto - Iguana (On Air Mix)
TTITLE18=Brooklyn Bounce - The Real Bass
TTITLE19=Dj Jean - The Launch
TTITLE20=Hypetraxx - The Darkside
TTITLE21=20 Fingers feat. Gillette - Short Dick Man
EXTD=
EXTT0=
EXTT1=
EXTT2=
EXTT3=
EXTT4=
EXTT5=
EXTT6=
EXTT7=
EXTT8=
EXTT9=
EXTT10=
EXTT11=
EXTT12=
EXTT13=
EXTT14=
EXTT15=
EXTT16=
EXTT17=
EXTT18=
EXTT19=
EXTT20=
EXTT21=
PLAYORDER=
